<?xml version="1.0" encoding="utf-8"?>
<!-- Generator: Adobe Illustrator 25.4.1, SVG Export Plug-In . SVG Version: 6.00 Build 0)  -->
<svg version="1.1" id="Capa_1" xmlns="http://www.w3.org/2000/svg" xmlns:xlink="http://www.w3.org/1999/xlink" x="0px" y="0px"
	 viewBox="0 0 100 45.9" style="enable-background:new 0 0 100 45.9;" xml:space="preserve">
<style type="text/css">
	.st0{fill:#F5F5F5;}
</style>
<g>
	<path id="XMLID_3_" class="st0" d="M39.4,12.2c1.4-0.2,2.8-0.5,4.2-0.9c-1.3,1-2.7,1.9-4.2,2.6v9v4.5v0.5c0,0,0,0.1,0,0.1
		c0,0,0,0,0,0c0,0,0,0,0,0.1c0,0,0,0.1,0,0.1c0,0.1,0,0.2,0,0.2c0,0.2,0,0.3,0,0.5c0,0.3-0.1,0.6-0.1,1c-0.1,0.7-0.2,1.3-0.4,2
		c-0.7,2.9-2.1,5.7-4,8.1c-1.8,2.4-4.1,4.5-6.8,5.9c3.4-4.1,5.7-9.1,6.6-14.4c0.2-1.3,0.4-2.6,0.4-4c0-0.3,0-0.5,0-0.8
		c0-0.1,0-0.3,0-0.4c0-0.3,0-0.6,0-0.9v-1.9v-8c-3.7,1-7.5,1.2-11.3,0.5v7.3c1.9,0.5,3.8,0.5,5.7,0.1c0.9-0.2,1.9-0.4,2.8-0.8
		c0.5-0.2,0.9-0.4,1.4-0.6c0.1-0.1,0.2-0.1,0.3-0.2c0,0,0.1,0,0.1,0c0,0,0,0,0,0c0,0,0,0,0,0c0,0,0,0,0,0c0,0,0,0,0,0c0,0,0,0,0,0
		c0,0-0.1,0.1-0.1,0.1c-0.1,0.2-0.2,0.4-0.3,0.5c-1.1,1.6-2.6,2.9-4.3,3.7c-1.7,0.8-3.7,1.2-5.6,1V34c0,2.7-0.7,5.3-2.1,7.6
		c-1.4-2.3-2.1-4.9-2.1-7.6v-7.6c-1.8-0.6-3.7-0.8-5.6-0.5c-0.9,0.1-1.9,0.4-2.8,0.7c-0.5,0.2-0.9,0.4-1.4,0.6
		c-0.1,0.1-0.2,0.1-0.3,0.2c-0.1,0-0.1,0.1-0.2,0.1c0,0,0,0,0,0c0,0,0,0,0,0c0,0,0,0,0,0c0,0,0,0,0,0c0,0,0,0,0,0l0,0c0,0,0,0,0,0
		c0,0,0,0,0-0.1c0.1-0.2,0.2-0.4,0.3-0.5c1.1-1.6,2.6-2.9,4.3-3.6c1.8-0.8,3.7-1,5.6-0.7V15c-3.7-0.8-7.5-1.1-11.3-0.9v8.4
		c0,1.3,0,2.5,0,3.8c0,0.1,0,0.3,0,0.4c0,1.4,0.1,2.8,0.3,4.2c0.8,5.5,3.1,10.8,6.7,15.1c-2.6-1.4-4.9-3.5-6.7-5.8
		c-1.8-2.3-3.2-5-4-7.9c-0.2-0.7-0.3-1.4-0.5-2.2c-0.1-0.3-0.1-0.7-0.1-1c0-0.2,0-0.3,0-0.5c0-0.1,0-0.2,0-0.3c0,0,0-0.1,0-0.1
		c0,0,0,0,0-0.1c0-0.1,0-0.1,0-0.2v-4.4v-8.9c-0.8,0.1-1.5,0.3-2.3,0.4c-0.4,0.1-0.8,0.2-1.1,0.3c-0.2,0-0.4,0.1-0.6,0.1
		c0,0-0.1,0-0.1,0c0,0,0,0-0.1,0c0,0,0,0,0,0c0,0,0,0,0,0c0,0,0,0,0,0c0,0,0,0,0,0c0,0,0,0,0,0c0.1-0.1,0.2-0.1,0.2-0.2
		c1.2-0.9,2.6-1.7,4-2.4v-0.9c0-0.1,0-0.2,0-0.3c0-0.1,0-0.1,0-0.2c0-0.1,0-0.3-0.1-0.4C4,10.4,3.8,9.8,3.4,9.3
		C3,8.8,2.5,8.4,1.9,8.1C1.4,7.9,0.7,7.8,0.1,7.9C2.4,7.4,4.7,6.8,7,6.1C7.2,6.1,7.5,6,7.7,5.9c0.1,0,0.2-0.1,0.4-0.1
		c0.1,0,0.1,0,0.2-0.1c0,0,0.1,0,0.1,0c0,0,0,0,0,0c0,0,0,0,0,0l0,0c0,0,0,0,0,0v0v0v0v0.1v0.1v1.8v3.6c3.7-1,7.5-1.2,11.3-0.5V6.5
		c0-1.1-0.5-2.1-1.3-2.7c-0.8-0.7-1.9-0.9-2.9-0.7c2.2-0.9,4.3-1.9,6.3-3c2.1,1.1,4.2,2.1,6.3,3c-1-0.2-2.1,0.1-2.9,0.7
		c-0.8,0.7-1.3,1.7-1.3,2.7v5.3c3.7,0.8,7.5,1.1,11.3,0.9V8.8v-2V6.2V5.8V5.7v0c0,0,0,0,0,0c0,0,0,0,0,0c0,0,0,0,0,0c0,0,0,0,0,0
		c0,0,0,0,0,0l0.1,0c0.1,0,0.1,0,0.2,0.1c0.1,0,0.3,0.1,0.4,0.1c2.5,0.8,5,1.4,7.6,2c-0.6-0.1-1.1-0.1-1.7,0.1c-0.5,0.2-1,0.5-1.4,1
		c-0.4,0.4-0.7,0.9-0.8,1.5c-0.1,0.3-0.1,0.6-0.2,0.8c0,0.1,0,0.2,0,0.3C39.4,11.8,39.4,12,39.4,12.2"/>
	<g>
		<path class="st0" d="M51.5,12.3v1.4h-2v4.1h-1.6V7.9h4.1v1.4h-2.6v3H51.5z"/>
		<path class="st0" d="M56.5,12.1v1.4h-2.1v2.9h2.7v1.4h-4.3V7.9h4.3v1.4h-2.7v2.8H56.5z"/>
		<path class="st0" d="M61.2,16.6v-1.6c0-0.9-0.3-1.3-1-1.3h-0.5v4h-1.6V7.9h2.4c1.6,0,2.3,0.8,2.3,2.3V11c0,1-0.3,1.7-1,2
			c0.8,0.3,1,1.1,1,2.1v1.5c0,0.5,0,0.8,0.2,1.2h-1.6C61.2,17.6,61.2,17.4,61.2,16.6z M59.6,12.4h0.6c0.6,0,0.9-0.3,0.9-1.1v-1
			c0-0.7-0.2-1-0.8-1h-0.8V12.4z"/>
		<path class="st0" d="M68.1,7.9h2.2v9.9h-1.5v-7.1l-1.1,7.1h-1.5l-1.2-7v7h-1.4V7.9h2.2l1.2,7.1L68.1,7.9z"/>
		<path class="st0" d="M75.2,12.1v1.4H73v2.9h2.7v1.4h-4.3V7.9h4.3v1.4H73v2.8H75.2z"/>
		<path class="st0" d="M78.1,17.9h-1.4V7.9h2l1.6,5.9V7.9h1.4v9.9H80l-1.9-7.2V17.9z"/>
		<path class="st0" d="M87.1,7.9v1.4h-1.6v8.5h-1.6V9.3h-1.6V7.9H87.1z"/>
		<path class="st0" d="M89.3,15.6c0,0.7,0.3,1,0.8,1c0.5,0,0.8-0.3,0.8-1V7.9h1.5v7.6c0,1.6-0.8,2.5-2.3,2.5s-2.3-0.9-2.3-2.5V7.9
			h1.6V15.6z"/>
		<path class="st0" d="M97.8,7.9h2.2v9.9h-1.5v-7.1l-1.1,7.1H96l-1.2-7v7h-1.4V7.9h2.2l1.2,7.1L97.8,7.9z"/>
		<path class="st0" d="M51.5,24.2v1.4h-2v4.1h-1.6v-9.9h4.1v1.4h-2.6v3H51.5z"/>
		<path class="st0" d="M56.1,29.7l-0.3-1.8h-1.9l-0.3,1.8h-1.4l1.6-9.9h2.3l1.6,9.9H56.1z M55.6,26.5l-0.8-5l-0.8,5H55.6z"/>
		<path class="st0" d="M63.1,22v0.4c0,1-0.3,1.7-1,2c0.8,0.3,1.2,1.1,1.2,2.1v0.8c0,1.5-0.8,2.4-2.4,2.4h-2.5v-9.9h2.4
			C62.4,19.8,63.1,20.5,63.1,22z M60,23.8h0.6c0.6,0,0.9-0.3,0.9-1.1v-0.6c0-0.7-0.2-1-0.8-1H60V23.8z M60,28.3h0.9
			c0.5,0,0.8-0.2,0.8-1v-0.9c0-0.9-0.3-1.2-1-1.2H60V28.3z"/>
		<path class="st0" d="M67.9,23.9v1.4h-2.1v2.9h2.7v1.4h-4.3v-9.9h4.3v1.4h-2.7v2.8H67.9z"/>
		<path class="st0" d="M72.5,28.5v-1.6c0-0.9-0.3-1.3-1-1.3H71v4h-1.6v-9.9h2.4c1.6,0,2.3,0.8,2.3,2.3v0.8c0,1-0.3,1.7-1,2
			c0.8,0.3,1,1.1,1,2.1v1.5c0,0.5,0,0.8,0.2,1.2h-1.6C72.6,29.4,72.5,29.3,72.5,28.5z M71,24.2h0.6c0.6,0,0.9-0.3,0.9-1.1v-1
			c0-0.7-0.2-1-0.8-1H71V24.2z"/>
		<path class="st0" d="M52.3,34v0.9h-1.1v-1c0-0.9-0.4-1.4-1.2-1.4c-0.8,0-1.2,0.5-1.2,1.4v5.3c0,0.9,0.4,1.4,1.2,1.4
			c0.8,0,1.2-0.5,1.2-1.4v-1.3h1.1v1.2c0,1.5-0.7,2.5-2.2,2.5c-1.5,0-2.2-1-2.2-2.5V34c0-1.5,0.7-2.5,2.2-2.5
			C51.6,31.5,52.3,32.5,52.3,34z"/>
		<path class="st0" d="M56.9,36v1h-2.4v3.5h3v1h-4.1v-9.9h4.1v1h-3V36H56.9z"/>
		<path class="st0" d="M60.7,31.6c1.6,0,2.2,0.8,2.2,2.3v0.8c0,1.1-0.4,1.8-1.2,2c0.9,0.3,1.2,1,1.2,2.1v1.5c0,0.4,0,0.9,0.2,1.2H62
			c-0.1-0.3-0.2-0.5-0.2-1.2v-1.6c0-1.1-0.5-1.5-1.4-1.5h-0.8v4.2h-1.1v-9.9H60.7z M60.4,36.3c0.9,0,1.4-0.3,1.4-1.4v-1
			c0-0.9-0.3-1.4-1.1-1.4h-1.1v3.7H60.4z"/>
		<path class="st0" d="M64.9,31.6l1.6,8.6l1.6-8.6h1l-1.9,9.9h-1.6l-1.9-9.9H64.9z"/>
		<path class="st0" d="M73.5,36v1h-2.4v3.5h3v1H70v-9.9H74v1h-3V36H73.5z"/>
		<path class="st0" d="M79.4,41.5h-4.5v-1l3.4-7.9h-3.3v-1h4.4v1L76,40.5h3.4V41.5z"/>
		<path class="st0" d="M81.6,39.5l-0.4,2h-1l1.9-9.9h1.6l1.9,9.9h-1.1l-0.4-2H81.6z M81.7,38.6h2.2l-1.1-5.7L81.7,38.6z"/>
	</g>
</g>
<rect x="135.4" y="-69" style="fill:none;" width="50.7" height="45.1"/>
<text transform="matrix(1 0 0 1 135.4254 -60.647)"><tspan x="0" y="0" style="font-family:'BebasNeue-Bold'; font-size:12px;">fermentum </tspan><tspan x="0" y="10" style="font-family:'BebasNeue-Bold'; font-size:12px;">faber </tspan><tspan x="0" y="20" style="font-family:'BebasNeueRegular'; font-size:12px;">cerveza</tspan></text>
</svg>
