<svg xmlns="http://www.w3.org/2000/svg" viewBox="0 0 500 500"><defs><style>.cls-1{fill:#f5f5f5;}</style></defs><g id="Capa_2" data-name="Capa 2"><g id="Layer_1" data-name="Layer 1"><circle cx="250" cy="250" r="250"/><path class="cls-1" d="M353.67,187.23a239,239,0,0,0,24.8-5.48,145.62,145.62,0,0,1-24.8,15.37v82.55c0,.17,0,.35,0,.52v.51l0,.67c0,.46,0,.92-.07,1.37-.05.92-.12,1.84-.2,2.77q-.24,2.83-.64,5.66a112.1,112.1,0,0,1-2.32,11.76,132.35,132.35,0,0,1-23.2,47.32,128.34,128.34,0,0,1-39.67,34.65c20.25-24,33.44-53.62,38.72-84.47a181.26,181.26,0,0,0,2.47-23.35c.06-1.52.11-3,.13-4.54,0-.75,0-1.5,0-2.25,0-1.84,0-3.67,0-5.51V206.56a146.12,146.12,0,0,1-66.14,2.89v43.07a78.91,78.91,0,0,0,33.51.76,94.18,94.18,0,0,0,16.23-4.61c2.76-1.06,5.46-2.22,8.13-3.5l2-1,.51-.26.25-.13h0s0,0,0,0l0,.05-.06.1-.46.8c-.64,1.08-1.31,2.13-2,3.16a64.35,64.35,0,0,1-25.29,21.81,60.57,60.57,0,0,1-32.84,5.78v39.91a86.84,86.84,0,0,1-12.4,44.71,86.84,86.84,0,0,1-12.4-44.71V270.91a71.06,71.06,0,0,0-33.15-3.09,81.19,81.19,0,0,0-16.26,4.08c-2.75,1-5.43,2.11-8.08,3.35l-2,1-1,.51-.13.07h0l0-.05.12-.2.23-.4c.62-1.06,1.28-2.11,2-3.13A59.22,59.22,0,0,1,205,251.79a57,57,0,0,1,32.9-3.84V203.48a240.15,240.15,0,0,0-66.14-5.19v71.36c0,.75,0,1.5,0,2.24a180.16,180.16,0,0,0,2,24.45c4.78,32.32,18.22,63.45,39.36,88.56A128,128,0,0,1,174.06,351a133.14,133.14,0,0,1-23.31-46.19,110.57,110.57,0,0,1-2.68-12.72c-.31-2-.56-4.07-.74-6.12-.09-1-.17-2-.23-3,0-.49,0-1-.07-1.47l0-.73c0-.12,0-.24,0-.36,0-.43,0-.86,0-1.29V201.09q-6.74,1.11-13.4,2.61c-2.22.5-4.44,1-6.64,1.59-1.1.28-2.2.57-3.29.87l-.83.22-.41.11-.2.06h0s0,0,0,0l0,0,.09-.07,1.37-1A145.83,145.83,0,0,1,147,191.19v-5.53c0-.57,0-1.13,0-1.69s-.05-.85-.09-1.27c-.08-.86-.2-1.7-.36-2.54a24.87,24.87,0,0,0-4.39-10.06,21,21,0,0,0-8.54-6.83,18.4,18.4,0,0,0-10.84-1.13q20.47-4.39,40.47-10.51c1.46-.44,2.91-.9,4.37-1.35l2.17-.7,1.09-.34.54-.18.27-.09.14,0h0a0,0,0,0,1,0,0v32.82a146,146,0,0,1,66.14-2.88V153.65a20.67,20.67,0,0,0-24.81-20.25q19-8.13,37.21-17.79,18.24,9.67,37.2,17.79a20.67,20.67,0,0,0-24.8,20.25v31.18A240.15,240.15,0,0,0,328.86,190V148.93h.08l.65.21,1.3.42,2.61.83q22,6.9,44.42,11.73a18.29,18.29,0,0,0-9.91.77,20.4,20.4,0,0,0-8.22,5.65,24,24,0,0,0-4.9,8.72,25.82,25.82,0,0,0-1.05,4.92c-.06.51-.1,1-.13,1.54-.07,1.16,0,2.32,0,3.49"/></g></g></svg>